<svg width="478" height="113" viewBox="0 0 478 113" fill="none" xmlns="http://www.w3.org/2000/svg">
<path d="M75.0625 25.6335L53.9275 4.49645C52.6485 3.21735 51.1302 2.20271 49.459 1.51046C47.7879 0.818212 45.9968 0.461914 44.188 0.461914C42.3792 0.461914 40.5881 0.818212 38.917 1.51046C37.2459 2.20271 35.7275 3.21735 34.4485 4.49645L13.3125 25.6325L44.1865 56.5085L63.0515 37.6445C80.0575 54.6895 85.4115 76.9184 75.0045 87.3244C83.1829 79.1461 87.7824 68.0569 87.7932 56.4909C87.8041 44.925 83.2255 33.8272 75.0625 25.6335Z" fill="#F7AF23"/>
<path d="M12.9375 87.3673L34.0735 108.503C35.3525 109.782 36.8709 110.797 38.542 111.489C40.2131 112.182 42.0042 112.538 43.813 112.538C45.6219 112.538 47.413 112.182 49.0841 111.489C50.7552 110.797 52.2736 109.782 53.5525 108.503L74.6875 87.3683L43.8125 56.4923L24.9485 75.3563C7.94354 58.3113 2.58853 36.0823 12.9955 25.6763C4.8171 33.8546 0.21768 44.9438 0.206806 56.5098C0.195932 68.0758 4.77449 79.1736 12.9375 87.3673Z" fill="#413769"/>
<path d="M48.2735 31.4127C47.214 32.1616 45.9689 32.6048 44.6745 32.694C43.3801 32.7831 42.086 32.5147 40.9338 31.9181C39.7816 31.3216 38.8155 30.4197 38.1412 29.3112C37.4669 28.2027 37.1102 26.9302 37.1102 25.6327C37.1102 24.3352 37.4669 23.0627 38.1412 21.9541C38.8155 20.8456 39.7816 19.9438 40.9338 19.3472C42.086 18.7507 43.3801 18.4823 44.6745 18.5714C45.9689 18.6606 47.214 19.1038 48.2735 19.8527C49.2002 20.5051 49.9564 21.3708 50.4784 22.3768C51.0004 23.3827 51.2728 24.4994 51.2728 25.6327C51.2728 26.766 51.0004 27.8827 50.4784 28.8886C49.9564 29.8946 49.2002 30.7602 48.2735 31.4127Z" fill="#413769"/>
<path d="M44.1587 77.3743L34.1545 87.3784L44.1587 97.3826L54.1628 87.3784L44.1587 77.3743Z" fill="#F7AF23"/>
<path d="M160.599 34.0273C160.601 36.1646 160.177 38.2809 159.354 40.2533C157.688 44.0719 154.64 47.1198 150.821 48.7863C148.84 49.6083 146.716 50.0315 144.571 50.0315C142.426 50.0315 140.302 49.6083 138.321 48.7863C134.503 47.1198 131.455 44.0719 129.788 40.2533C128.966 38.2722 128.543 36.1483 128.543 34.0033C128.543 31.8583 128.966 29.7344 129.788 27.7533C131.454 23.9342 134.502 20.8862 138.321 19.2203C140.277 18.3966 142.379 17.973 144.501 17.9743C147.101 17.8838 149.683 18.4441 152.012 19.6044C154.34 20.7646 156.342 22.4881 157.836 24.6183C158.005 24.878 158.117 25.1699 158.167 25.4755C158.216 25.7811 158.201 26.0936 158.123 26.3931C158.045 26.6926 157.905 26.9725 157.712 27.215C157.52 27.4575 157.279 27.6571 157.005 27.8013C156.457 28.0708 155.83 28.1352 155.237 27.9828C154.645 27.8304 154.128 27.4713 153.777 26.9703C152.208 24.8388 149.956 23.309 147.396 22.6356C144.837 21.9621 142.124 22.1856 139.709 23.2689C137.294 24.3521 135.323 26.2298 134.123 28.5893C132.924 30.9489 132.569 33.6479 133.118 36.2373C133.666 38.8267 135.085 41.1501 137.138 42.8209C139.19 44.4917 141.753 45.409 144.4 45.4202C147.047 45.4315 149.618 44.5359 151.685 42.8826C153.752 41.2292 155.19 38.9179 155.76 36.3333H145.747C145.136 36.3315 144.551 36.0879 144.119 35.6558C143.687 35.2238 143.443 34.6383 143.441 34.0273C143.438 33.7237 143.496 33.4225 143.611 33.1414C143.726 32.8603 143.895 32.6049 144.11 32.3902C144.325 32.1754 144.58 32.0057 144.861 31.8908C145.142 31.776 145.444 31.7184 145.747 31.7213H158.293C158.904 31.7231 159.49 31.9667 159.922 32.3988C160.354 32.8308 160.597 33.4163 160.599 34.0273Z" fill="white"/>
<path d="M176.296 29.2773C176.294 29.8883 176.051 30.4738 175.619 30.9059C175.187 31.3379 174.601 31.5815 173.99 31.5833C173.069 31.5829 172.158 31.764 171.307 32.1162C170.456 32.4684 169.683 32.9848 169.032 33.6359C168.381 34.287 167.864 35.0601 167.512 35.9109C167.16 36.7616 166.979 37.6735 166.979 38.5943V47.8663C166.979 48.4719 166.739 49.0528 166.31 49.481C165.882 49.9092 165.301 50.1498 164.696 50.1498C164.09 50.1498 163.509 49.9092 163.081 49.481C162.653 49.0528 162.412 48.4719 162.412 47.8663V38.5943C162.414 35.5243 163.634 32.5806 165.805 30.4098C167.976 28.2391 170.92 27.0189 173.99 27.0173C174.29 27.0131 174.588 27.0683 174.867 27.1798C175.146 27.2913 175.4 27.4569 175.614 27.667C175.828 27.8771 175.999 28.1276 176.116 28.404C176.233 28.6803 176.294 28.9772 176.296 29.2773Z" fill="white"/>
<path d="M198.067 38.548C198.065 38.8481 198.004 39.145 197.887 39.4213C197.77 39.6977 197.599 39.9482 197.385 40.1583C197.171 40.3684 196.917 40.5339 196.638 40.6455C196.359 40.757 196.061 40.8122 195.761 40.808H179.848C180.323 42.1929 181.218 43.3951 182.409 44.2468C183.599 45.0985 185.026 45.5572 186.49 45.559C188.327 45.5878 190.129 45.0569 191.656 44.037C191.924 43.8963 192.217 43.8122 192.519 43.7898C192.82 43.7674 193.123 43.8071 193.409 43.9066C193.694 44.0061 193.956 44.1632 194.178 44.3681C194.4 44.5731 194.578 44.8215 194.7 45.098C194.929 45.6518 194.942 46.2712 194.737 46.8343C194.532 47.3974 194.124 47.8635 193.593 48.141C191.515 49.5783 189.015 50.2769 186.493 50.125C183.441 50.0966 180.524 48.8643 178.376 46.6962C176.228 44.5281 175.023 41.5995 175.023 38.5475C175.023 35.4954 176.228 32.5668 178.376 30.3987C180.524 28.2306 183.441 26.9983 186.493 26.97C188.022 26.9399 189.541 27.2189 190.959 27.7901C192.377 28.3613 193.666 29.213 194.747 30.2942C195.828 31.3753 196.68 32.6637 197.251 34.082C197.822 35.5002 198.101 37.0193 198.071 38.548M179.852 36.242H193.183C192.736 34.8345 191.84 33.6125 190.632 32.7635C189.423 31.9145 187.97 31.4854 186.494 31.542C185.037 31.5431 183.616 31.9956 182.427 32.8372C181.237 33.6789 180.338 34.8683 179.852 36.242Z" fill="white"/>
<path d="M222.47 38.7322V47.7722C222.481 48.078 222.428 48.3827 222.316 48.6673C222.204 48.952 222.034 49.2105 221.818 49.4268C221.602 49.6431 221.343 49.8126 221.058 49.9246C220.774 50.0367 220.469 50.089 220.163 50.0782C219.578 50.0262 219.032 49.764 218.626 49.3402C218.219 48.9165 217.98 48.3598 217.952 47.7732C216.039 49.3587 213.608 50.1801 211.125 50.0792C209.607 50.1258 208.095 49.8665 206.679 49.3169C205.264 48.7672 203.973 47.9385 202.884 46.8798C201.795 45.8212 200.93 44.5544 200.34 43.1547C199.751 41.755 199.449 40.251 199.452 38.7322C199.442 37.197 199.737 35.675 200.32 34.2547C200.903 32.8344 201.762 31.544 202.848 30.4584C203.934 29.3729 205.224 28.5137 206.645 27.9309C208.065 27.3481 209.587 27.0531 211.122 27.0632C212.641 27.0597 214.144 27.3616 215.544 27.9508C216.943 28.5401 218.21 29.4047 219.268 30.4933C220.327 31.5819 221.156 32.8723 221.706 34.2877C222.256 35.703 222.515 37.2145 222.469 38.7322M217.948 38.7322C217.972 37.8139 217.814 36.9 217.483 36.043C217.152 35.1859 216.655 34.4027 216.021 33.7383C215.386 33.0739 214.627 32.5414 213.786 32.1714C212.945 31.8014 212.04 31.6012 211.121 31.5822C209.233 31.6073 207.429 32.3687 206.093 33.7042C204.758 35.0397 203.996 36.8438 203.971 38.7322C203.99 39.6507 204.19 40.5563 204.56 41.3971C204.93 42.238 205.463 42.9974 206.127 43.6318C206.792 44.2662 207.575 44.763 208.432 45.0938C209.289 45.4246 210.203 45.5827 211.121 45.5592C212.022 45.5765 212.918 45.4117 213.754 45.0747C214.59 44.7377 215.35 44.2355 215.987 43.5981C216.624 42.9607 217.127 42.2012 217.464 41.3651C217.801 40.529 217.965 39.6335 217.948 38.7322Z" fill="white"/>
<path d="M237.853 29.2774C237.851 29.8884 237.608 30.4739 237.176 30.9059C236.744 31.338 236.158 31.5815 235.547 31.5834H232.272V47.8654C232.272 48.471 232.032 49.0518 231.603 49.48C231.175 49.9083 230.594 50.1489 229.989 50.1489C229.383 50.1489 228.802 49.9083 228.374 49.48C227.946 49.0518 227.705 48.471 227.705 47.8654V31.5834H224.384C223.78 31.5731 223.204 31.3255 222.781 30.8939C222.358 30.4624 222.122 29.8817 222.123 29.2774C222.124 28.6781 222.363 28.1037 222.787 27.6801C223.21 27.2565 223.785 27.0182 224.384 27.0174H227.705V17.7924C227.718 17.195 227.964 16.6264 228.391 16.2083C228.818 15.7903 229.391 15.5562 229.989 15.5562C230.586 15.5562 231.16 15.7903 231.587 16.2083C232.014 16.6264 232.26 17.195 232.272 17.7924V27.0174H235.547C235.847 27.0131 236.145 27.0684 236.424 27.1799C236.703 27.2914 236.957 27.457 237.171 27.6671C237.385 27.8772 237.556 28.1276 237.673 28.404C237.79 28.6804 237.851 28.9772 237.853 29.2774Z" fill="white"/>
<path d="M260.788 38.5484C260.786 38.8485 260.725 39.1454 260.608 39.4217C260.491 39.6981 260.32 39.9486 260.106 40.1587C259.891 40.3688 259.638 40.5344 259.359 40.6459C259.08 40.7574 258.782 40.8126 258.482 40.8084H242.569C243.044 42.1933 243.939 43.3955 245.13 44.2472C246.32 45.0989 247.747 45.5576 249.211 45.5594C251.048 45.5882 252.85 45.0573 254.377 44.0374C254.645 43.8968 254.938 43.8126 255.24 43.7902C255.541 43.7678 255.844 43.8075 256.129 43.907C256.415 44.0065 256.677 44.1636 256.899 44.3685C257.121 44.5735 257.299 44.8219 257.421 45.0984C257.65 45.6522 257.663 46.2716 257.458 46.8347C257.253 47.3978 256.845 47.8639 256.314 48.1414C254.236 49.5787 251.736 50.2773 249.214 50.1254C247.685 50.1396 246.168 49.8506 244.751 49.2752C243.333 48.6997 242.044 47.8492 240.958 46.7727C239.871 45.6962 239.009 44.4151 238.42 43.0034C237.832 41.5917 237.529 40.0774 237.529 38.5479C237.529 37.0184 237.832 35.504 238.42 34.0923C239.009 32.6806 239.871 31.3995 240.958 30.323C242.044 29.2466 243.333 28.396 244.751 27.8206C246.168 27.2451 247.685 26.9562 249.214 26.9704C250.743 26.9409 252.261 27.2202 253.679 27.7917C255.097 28.3631 256.385 29.2149 257.465 30.296C258.546 31.3771 259.397 32.6653 259.968 34.0833C260.539 35.5013 260.818 37.02 260.788 38.5484ZM242.569 36.2424H255.899C255.452 34.8349 254.556 33.6129 253.348 32.7639C252.139 31.9149 250.686 31.4858 249.21 31.5424C247.753 31.5435 246.332 31.996 245.143 32.8376C243.953 33.6793 243.054 34.8687 242.568 36.2424" fill="white"/>
<path d="M276.831 29.2773C276.829 29.8883 276.586 30.4738 276.154 30.9059C275.722 31.3379 275.136 31.5815 274.525 31.5833C273.604 31.5829 272.693 31.764 271.842 32.1162C270.991 32.4684 270.218 32.9848 269.567 33.6359C268.916 34.287 268.399 35.0601 268.047 35.9109C267.695 36.7616 267.514 37.6735 267.514 38.5943V47.8663C267.521 48.1702 267.466 48.4723 267.354 48.7549C267.242 49.0375 267.075 49.295 266.863 49.5121C266.65 49.7293 266.396 49.9019 266.116 50.0196C265.836 50.1374 265.535 50.1981 265.231 50.1981C264.927 50.1981 264.626 50.1374 264.346 50.0196C264.065 49.9019 263.812 49.7293 263.599 49.5121C263.386 49.295 263.219 49.0375 263.107 48.7549C262.995 48.4723 262.941 48.1702 262.947 47.8663V38.5943C262.949 35.5243 264.17 32.5806 266.34 30.4098C268.511 28.2391 271.455 27.0189 274.525 27.0173C274.825 27.0131 275.123 27.0683 275.402 27.1798C275.681 27.2913 275.935 27.4569 276.149 27.667C276.363 27.8771 276.534 28.1276 276.651 28.404C276.768 28.6803 276.829 28.9772 276.831 29.2773Z" fill="white"/>
<path d="M310.702 34.0272C310.704 36.1645 310.28 38.2808 309.457 40.2532C307.791 44.0718 304.743 47.1196 300.924 48.7862C298.943 49.6082 296.819 50.0314 294.674 50.0314C292.529 50.0314 290.405 49.6082 288.424 48.7862C284.606 47.1196 281.558 44.0718 279.891 40.2532C279.069 38.272 278.646 36.1482 278.646 34.0032C278.646 31.8582 279.069 29.7343 279.891 27.7532C281.557 23.9341 284.605 20.8861 288.424 19.2202C290.38 18.3965 292.482 17.9729 294.604 17.9742C297.204 17.8843 299.784 18.4447 302.112 19.6048C304.44 20.7648 306.442 22.4877 307.935 24.6172C308.104 24.8769 308.216 25.1688 308.266 25.4744C308.315 25.78 308.3 26.0925 308.222 26.392C308.144 26.6915 308.004 26.9714 307.811 27.2139C307.619 27.4563 307.378 27.656 307.104 27.8002C306.555 28.0697 305.928 28.1341 305.336 27.9817C304.744 27.8293 304.226 27.4702 303.876 26.9692C302.307 24.8377 300.055 23.3079 297.495 22.6345C294.936 21.961 292.223 22.1845 289.808 23.2678C287.393 24.351 285.422 26.2287 284.222 28.5882C283.023 30.9477 282.668 33.6468 283.217 36.2362C283.765 38.8255 285.184 41.149 287.237 42.8198C289.289 44.4906 291.852 45.4079 294.499 45.4191C297.146 45.4304 299.717 44.5348 301.784 42.8815C303.85 41.2281 305.289 38.9168 305.859 36.3322H295.85C295.239 36.3303 294.654 36.0868 294.222 35.6547C293.79 35.2227 293.546 34.6372 293.544 34.0262C293.541 33.7225 293.599 33.4214 293.714 33.1403C293.829 32.8592 293.998 32.6038 294.213 32.389C294.428 32.1743 294.683 32.0046 294.964 31.8897C295.245 31.7749 295.547 31.7172 295.85 31.7202H308.396C309.007 31.722 309.593 31.9656 310.025 32.3976C310.457 32.8297 310.7 33.4162 310.702 34.0272Z" fill="white"/>
<path d="M312.516 38.5472C312.516 36.2575 313.195 34.0193 314.468 32.1156C315.74 30.2119 317.548 28.7282 319.664 27.8522C321.779 26.9761 324.107 26.747 326.352 27.1938C328.598 27.6406 330.661 28.7433 332.28 30.3624C333.899 31.9815 335.001 34.0443 335.448 36.29C335.894 38.5357 335.665 40.8634 334.789 42.9788C333.913 45.0941 332.429 46.9021 330.525 48.1742C328.621 49.4462 326.383 50.1252 324.093 50.1252C321.023 50.1233 318.079 48.9029 315.909 46.732C313.738 44.561 312.518 41.6172 312.516 38.5472ZM317.082 38.5472C317.082 39.9338 317.493 41.2893 318.264 42.4423C319.034 43.5953 320.129 44.4939 321.41 45.0245C322.691 45.5552 324.101 45.694 325.461 45.4235C326.821 45.153 328.07 44.4852 329.051 43.5047C330.031 42.5242 330.699 41.275 330.969 39.915C331.24 38.555 331.101 37.1453 330.57 35.8642C330.04 34.5831 329.141 33.4881 327.988 32.7178C326.835 31.9474 325.48 31.5362 324.093 31.5362C322.236 31.543 320.457 32.2839 319.143 33.5972C317.83 34.9106 317.089 36.6899 317.082 38.5472Z" fill="white"/>
<path d="M337.343 38.5472C337.343 36.2575 338.023 34.0193 339.295 32.1156C340.567 30.2119 342.375 28.7282 344.491 27.8522C346.606 26.9761 348.934 26.747 351.179 27.1938C353.425 27.6406 355.488 28.7433 357.107 30.3624C358.726 31.9815 359.828 34.0443 360.275 36.29C360.721 38.5357 360.492 40.8634 359.616 42.9788C358.74 45.0941 357.256 46.9021 355.352 48.1742C353.448 49.4462 351.21 50.1252 348.92 50.1252C345.85 50.1233 342.906 48.9029 340.736 46.732C338.565 44.561 337.345 41.6172 337.343 38.5472ZM341.909 38.5472C341.909 39.9338 342.32 41.2893 343.091 42.4423C343.861 43.5953 344.956 44.4939 346.237 45.0245C347.518 45.5552 348.928 45.694 350.288 45.4235C351.648 45.153 352.897 44.4852 353.878 43.5047C354.858 42.5242 355.526 41.275 355.796 39.915C356.067 38.555 355.928 37.1453 355.398 35.8642C354.867 34.5831 353.968 33.4881 352.815 32.7178C351.662 31.9474 350.307 31.5362 348.92 31.5362C347.063 31.543 345.284 32.2839 343.97 33.5972C342.657 34.9106 341.916 36.6899 341.909 38.5472Z" fill="white"/>
<path d="M380.802 29.2299V17.7449C380.802 17.1393 381.043 16.5585 381.471 16.1302C381.899 15.702 382.48 15.4614 383.086 15.4614C383.691 15.4614 384.272 15.702 384.7 16.1302C385.129 16.5585 385.369 17.1393 385.369 17.7449V38.4549C385.364 41.0596 384.479 43.5862 382.857 45.6246C381.236 47.6631 378.973 49.0938 376.436 49.6847C373.9 50.2756 371.238 49.992 368.882 48.8799C366.527 47.7678 364.616 45.8925 363.461 43.5581C362.305 41.2238 361.972 38.5675 362.516 36.0202C363.059 33.4729 364.448 31.184 366.456 29.5249C368.464 27.8658 370.974 26.9339 373.578 26.8804C376.182 26.8268 378.728 27.6548 380.802 29.2299ZM380.802 38.4549V38.4089C380.796 36.5454 380.051 34.7604 378.73 33.446C377.409 32.1315 375.62 31.3949 373.757 31.3979C371.893 31.401 370.107 32.1434 368.79 33.4622C367.474 34.781 366.734 36.5684 366.734 38.4319C366.734 40.2955 367.474 42.0828 368.79 43.4016C370.107 44.7204 371.893 45.4629 373.757 45.4659C375.62 45.469 377.409 44.7324 378.73 43.4179C380.051 42.1034 380.796 40.3185 380.802 38.4549Z" fill="white"/>
<path d="M400.367 47.8881V20.3171C400.367 19.7177 400.605 19.1429 401.029 18.7191C401.453 18.2952 402.028 18.0571 402.627 18.0571C403.227 18.0571 403.801 18.2952 404.225 18.7191C404.649 19.1429 404.887 19.7177 404.887 20.3171V47.8881C404.887 48.1849 404.829 48.4788 404.715 48.753C404.602 49.0272 404.435 49.2763 404.225 49.4862C404.015 49.6961 403.766 49.8625 403.492 49.9761C403.218 50.0897 402.924 50.1481 402.627 50.1481C402.33 50.1481 402.037 50.0897 401.762 49.9761C401.488 49.8625 401.239 49.6961 401.029 49.4862C400.819 49.2763 400.653 49.0272 400.539 48.753C400.426 48.4788 400.367 48.1849 400.367 47.8881Z" fill="white"/>
<path d="M430.445 38.6679V47.8429C430.451 48.1437 430.398 48.4426 430.287 48.7223C430.176 49.002 430.011 49.2567 429.8 49.4716C429.59 49.6866 429.339 49.8573 429.061 49.9739C428.784 50.0904 428.486 50.1505 428.186 50.1505C427.885 50.1505 427.587 50.0904 427.31 49.9739C427.032 49.8573 426.781 49.6866 426.571 49.4716C426.36 49.2567 426.195 49.002 426.084 48.7223C425.973 48.4426 425.92 48.1437 425.926 47.8429V38.6679C425.926 36.8277 425.195 35.0629 423.894 33.7617C422.593 32.4605 420.828 31.7295 418.988 31.7295C417.147 31.7295 415.383 32.4605 414.081 33.7617C412.78 35.0629 412.049 36.8277 412.049 38.6679V47.8429C412.055 48.1437 412.002 48.4426 411.891 48.7223C411.78 49.002 411.615 49.2567 411.404 49.4716C411.194 49.6866 410.943 49.8573 410.665 49.9739C410.388 50.0904 410.09 50.1505 409.79 50.1505C409.489 50.1505 409.191 50.0904 408.914 49.9739C408.636 49.8573 408.385 49.6866 408.175 49.4716C407.964 49.2567 407.799 49.002 407.688 48.7223C407.577 48.4426 407.524 48.1437 407.53 47.8429V38.6679C407.53 35.6292 408.737 32.715 410.886 30.5663C413.035 28.4176 415.949 27.2104 418.988 27.2104C422.026 27.2104 424.941 28.4176 427.089 30.5663C429.238 32.715 430.445 35.6292 430.445 38.6679Z" fill="white"/>
<path d="M445.677 29.4471C445.68 29.7477 445.623 30.0459 445.509 30.3241C445.396 30.6024 445.227 30.8552 445.015 31.0677C444.802 31.2802 444.549 31.4481 444.271 31.5617C443.993 31.6753 443.695 31.7322 443.394 31.7291H439.377V47.8431C439.383 48.1439 439.33 48.4428 439.219 48.7225C439.108 49.0022 438.943 49.2569 438.732 49.4718C438.522 49.6868 438.271 49.8575 437.993 49.9741C437.716 50.0906 437.418 50.1507 437.118 50.1507C436.817 50.1507 436.519 50.0906 436.242 49.9741C435.964 49.8575 435.713 49.6868 435.503 49.4718C435.292 49.2569 435.127 49.0022 435.016 48.7225C434.906 48.4428 434.852 48.1439 434.858 47.8431V31.7291H432.352C431.761 31.7167 431.198 31.4732 430.785 31.0508C430.371 30.6284 430.14 30.0608 430.14 29.4696C430.14 28.8785 430.371 28.3109 430.785 27.8885C431.198 27.4661 431.761 27.2226 432.352 27.2101H434.863C434.822 25.6576 435.097 24.1128 435.669 22.6692C436.242 21.2255 437.101 19.9127 438.195 18.8101C439.392 17.5874 440.861 16.6644 442.482 16.1161C442.761 16.0126 443.057 15.966 443.354 15.9792C443.651 15.9924 443.942 16.0651 444.21 16.193C444.478 16.3209 444.718 16.5013 444.915 16.7236C445.113 16.9459 445.263 17.2056 445.358 17.4871C445.557 18.0502 445.525 18.6693 445.268 19.2085C445.011 19.7476 444.551 20.1629 443.988 20.3631C443.004 20.6985 442.114 21.2611 441.388 22.0051C440.719 22.6912 440.197 23.5058 439.852 24.3995C439.506 25.2933 439.346 26.2477 439.38 27.2051H443.397C443.694 27.2009 443.989 27.2556 444.265 27.3659C444.541 27.4763 444.792 27.6401 445.005 27.8481C445.217 28.0561 445.386 28.304 445.502 28.5776C445.618 28.8512 445.678 29.145 445.68 29.4421" fill="white"/>
<path d="M445.947 38.6679C445.947 36.402 446.62 34.1871 447.879 32.3031C449.138 30.4192 450.927 28.9509 453.02 28.0838C455.114 27.2168 457.417 26.99 459.64 27.4321C461.862 27.8742 463.903 28.9654 465.506 30.5676C467.108 32.1698 468.199 34.2112 468.641 36.4335C469.083 38.6559 468.856 40.9594 467.989 43.0529C467.122 45.1463 465.654 46.9357 463.77 48.1947C461.886 49.4536 459.671 50.1257 457.405 50.1259C454.367 50.1241 451.454 48.9163 449.305 46.7679C447.157 44.6195 445.949 41.7062 445.947 38.6679ZM450.466 38.6679C450.466 40.0404 450.873 41.382 451.635 42.5233C452.398 43.6645 453.481 44.5541 454.749 45.0794C456.017 45.6048 457.412 45.7423 458.758 45.4747C460.104 45.2071 461.341 44.5463 462.312 43.5759C463.282 42.6055 463.943 41.3691 464.211 40.023C464.479 38.677 464.341 37.2817 463.816 36.0137C463.291 34.7457 462.402 33.6619 461.26 32.8994C460.119 32.1369 458.778 31.7299 457.405 31.7299C455.567 31.7368 453.806 32.4699 452.507 33.7695C451.207 35.0691 450.473 36.8299 450.466 38.6679Z" fill="white"/>
<path d="M473.075 48.5061C472.825 48.2676 472.625 47.9814 472.487 47.6644C472.349 47.3474 472.276 47.006 472.271 46.6602C472.267 46.3145 472.332 45.9714 472.463 45.6512C472.593 45.331 472.786 45.0401 473.031 44.7956C473.275 44.5511 473.566 44.358 473.886 44.2276C474.207 44.0972 474.55 44.0322 474.895 44.0363C475.241 44.0405 475.583 44.1137 475.9 44.2518C476.217 44.3898 476.503 44.5898 476.741 44.8401C477.208 45.3301 477.465 45.9834 477.457 46.6602C477.449 47.3371 477.176 47.984 476.698 48.4627C476.219 48.9413 475.572 49.2138 474.895 49.2219C474.219 49.2301 473.565 48.9732 473.075 48.5061Z" fill="white"/>
<path d="M144.264 82.523V80.257C144.277 79.7546 144.472 79.274 144.813 78.905C145.242 78.6142 145.759 78.4839 146.274 78.537C146.777 78.5063 147.277 78.635 147.702 78.905C147.882 79.0804 148.023 79.291 148.118 79.5236C148.212 79.7563 148.258 80.006 148.251 80.257V82.524H159.405C159.872 82.5008 160.333 82.6288 160.721 82.889C161.026 83.27 161.17 83.7553 161.121 84.241C161.155 84.6925 161.038 85.1424 160.79 85.521C160.625 85.7254 160.411 85.886 160.169 85.9884C159.927 86.0908 159.663 86.1318 159.401 86.108H148.248V90.387H161.121C161.629 90.3473 162.134 90.489 162.546 90.787C162.717 90.9866 162.845 91.2198 162.92 91.4715C162.996 91.7233 163.018 91.9881 162.985 92.249C163.004 92.6924 162.876 93.1297 162.619 93.492C162.426 93.6915 162.192 93.8472 161.933 93.9485C161.674 94.0498 161.397 94.0943 161.119 94.079H131.389C130.893 94.1154 130.399 93.9736 129.998 93.679C129.822 93.4889 129.689 93.2634 129.608 93.0176C129.526 92.7719 129.498 92.5115 129.525 92.254C129.491 91.7241 129.66 91.2011 129.998 90.792C130.4 90.4991 130.893 90.3575 131.389 90.392H144.264V86.113H133.108C132.87 86.1312 132.631 86.1019 132.405 86.0267C132.179 85.9515 131.97 85.8319 131.79 85.675C131.629 85.477 131.511 85.2481 131.442 85.0025C131.373 84.7568 131.356 84.4997 131.39 84.247C131.349 83.7621 131.492 83.2794 131.79 82.895C132.179 82.635 132.641 82.507 133.108 82.53L144.264 82.523ZM160.829 63.946C161.337 63.9058 161.843 64.0476 162.256 64.346C162.427 64.5465 162.554 64.7803 162.629 65.0325C162.704 65.2847 162.727 65.5498 162.694 65.811C162.717 66.2662 162.589 66.7163 162.329 67.091C162.14 67.2956 161.906 67.4545 161.646 67.5555C161.387 67.6565 161.107 67.697 160.829 67.674H143.564L140.164 74.111C144.74 73.9597 149.305 73.5692 153.84 72.941C153.04 72.241 152.23 71.552 151.39 70.819C151.121 70.445 150.968 70.0002 150.95 69.54C150.98 69.3174 151.057 69.1039 151.177 68.914C151.297 68.7242 151.456 68.5625 151.644 68.44C152.042 68.2035 152.5 68.0894 152.962 68.112C153.524 68.155 154.066 68.3435 154.533 68.659C157.001 70.4091 159.194 72.5161 161.042 74.911C161.448 75.4189 161.714 76.0249 161.811 76.668C161.839 76.9455 161.808 77.2257 161.72 77.4903C161.631 77.7549 161.488 77.9978 161.299 78.203C160.884 78.5324 160.365 78.7017 159.835 78.68C159.538 78.6882 159.245 78.6096 158.992 78.4536C158.739 78.2976 158.536 78.0712 158.41 77.802C157.861 77.142 157.276 76.45 156.655 75.717C153.782 76.328 150.878 76.7794 147.955 77.069C142.882 77.6691 137.778 77.9623 132.669 77.947C132.411 77.9841 132.148 77.9677 131.897 77.8989C131.646 77.8301 131.411 77.7103 131.208 77.547C131.016 77.3584 130.869 77.1279 130.78 76.8735C130.691 76.619 130.663 76.3474 130.696 76.08C130.676 75.6467 130.777 75.2163 130.987 74.837C131.208 74.6236 131.474 74.4609 131.764 74.3603C132.054 74.2596 132.363 74.2233 132.669 74.254C133.73 74.254 134.791 74.254 135.814 74.217L139.252 67.67H131.83C131.316 67.7046 130.808 67.5486 130.402 67.232C130.234 67.0379 130.108 66.811 130.033 66.5657C129.957 66.3204 129.933 66.062 129.963 65.807C129.935 65.2825 130.09 64.7646 130.402 64.342C130.821 64.0546 131.323 63.914 131.83 63.942L160.829 63.946Z" fill="white"/>
<path d="M183.861 62.5201C184.296 62.8633 184.688 63.2563 185.031 63.6911C185.491 64.2763 185.918 64.8862 186.311 65.5181H193.367C193.731 64.7881 194.207 63.9831 194.719 63.1051C194.884 62.7694 195.147 62.4917 195.474 62.3088C195.8 62.126 196.175 62.0466 196.547 62.0811C196.992 62.0706 197.432 62.1721 197.827 62.3761C198.002 62.4853 198.147 62.636 198.249 62.8149C198.351 62.9938 198.407 63.1952 198.412 63.4011C198.085 64.1334 197.706 64.8412 197.278 65.5191H204.703C204.899 65.4993 205.097 65.5184 205.286 65.5752C205.475 65.632 205.651 65.7254 205.803 65.8501C205.933 65.9997 206.029 66.1751 206.086 66.3647C206.143 66.5544 206.159 66.7539 206.133 66.9501C206.154 67.3338 206.064 67.7153 205.876 68.0501C205.73 68.2127 205.548 68.3399 205.346 68.422C205.143 68.5041 204.924 68.539 204.706 68.5241H191.832V70.6821H203.28C203.676 70.6432 204.071 70.7609 204.38 71.0101C204.509 71.1601 204.605 71.3356 204.662 71.5251C204.718 71.7147 204.734 71.914 204.708 72.1101C204.722 72.4457 204.633 72.7775 204.453 73.0611C204.307 73.2235 204.125 73.3506 203.923 73.4327C203.72 73.5148 203.501 73.5498 203.283 73.5351H191.832V75.6821H204.558C204.947 75.6522 205.335 75.7552 205.658 75.9741C205.912 76.2946 206.029 76.7018 205.986 77.1081C206.003 77.4788 205.915 77.8468 205.731 78.1691C205.595 78.3464 205.416 78.4865 205.212 78.5764C205.007 78.6662 204.783 78.7029 204.56 78.6831H199.586L198.6 80.9511H205.145C205.573 80.9157 206.001 81.0317 206.352 81.2791C206.625 81.6338 206.756 82.0773 206.719 82.5231C206.752 82.9348 206.649 83.3459 206.425 83.6931C206.269 83.8774 206.072 84.0227 205.85 84.1176C205.628 84.2126 205.386 84.2545 205.145 84.2401H175.267C175.055 84.2622 174.84 84.2378 174.638 84.1688C174.436 84.0997 174.251 83.9876 174.096 83.8401C173.803 83.6211 173.696 83.1801 173.696 82.5241C173.677 82.3007 173.703 82.0757 173.772 81.8622C173.841 81.6487 173.951 81.4509 174.096 81.2801C174.436 81.0379 174.851 80.9223 175.267 80.9531H181.045L180.094 78.6851H175.852C175.65 78.7121 175.445 78.6898 175.253 78.6201C175.062 78.5505 174.89 78.4356 174.752 78.2851C174.621 78.1225 174.524 77.9349 174.467 77.7336C174.41 77.5322 174.395 77.3215 174.422 77.1141C174.404 76.71 174.52 76.3112 174.752 75.9801C175.075 75.7608 175.463 75.6578 175.852 75.6881H188.139V73.5271H176.985C176.591 73.5539 176.2 73.4374 175.885 73.1991C175.635 72.8898 175.517 72.4949 175.555 72.0991C175.536 71.695 175.652 71.296 175.885 70.9651C176.213 70.756 176.597 70.6543 176.985 70.6741H188.139V68.5181H175.705C175.506 68.5412 175.305 68.5204 175.115 68.4574C174.925 68.3943 174.751 68.2905 174.605 68.1531C174.346 67.8074 174.228 67.3758 174.275 66.9461C174.248 66.5516 174.365 66.1606 174.605 65.8461C174.758 65.7214 174.933 65.628 175.122 65.5712C175.311 65.5144 175.509 65.4953 175.705 65.5151H182.397C182.027 65.1383 181.685 64.7349 181.373 64.3081C181.171 64.1449 181.04 63.9093 181.008 63.6511C181.012 63.4208 181.07 63.1945 181.178 62.9911C181.286 62.7876 181.441 62.6128 181.63 62.4811C181.981 62.2252 182.402 62.0853 182.836 62.0811C183.209 62.1396 183.562 62.2899 183.861 62.5201ZM201.12 85.6711C201.413 85.6311 201.71 85.6591 201.99 85.7531C202.27 85.8471 202.525 86.0045 202.734 86.213C202.943 86.4215 203.101 86.6755 203.195 86.9552C203.29 87.2348 203.319 87.5325 203.279 87.8251V92.5431C203.315 92.8336 203.284 93.1284 203.187 93.4048C203.091 93.6811 202.932 93.9315 202.723 94.1367C202.515 94.3418 202.261 94.496 201.983 94.5875C201.705 94.679 201.41 94.7052 201.12 94.6641H178.704C178.414 94.7084 178.117 94.6844 177.838 94.5941C177.558 94.5037 177.304 94.3495 177.094 94.1437C176.885 93.9378 176.726 93.686 176.631 93.4082C176.536 93.1303 176.507 92.8342 176.546 92.5431V87.8251C176.503 87.532 176.53 87.2329 176.623 86.9518C176.716 86.6706 176.874 86.4152 177.084 86.206C177.294 85.9967 177.549 85.8393 177.831 85.7465C178.112 85.6536 178.411 85.6278 178.704 85.6711H201.12ZM199.547 91.0811V89.2541C199.559 89.1777 199.553 89.0996 199.53 89.0257C199.507 88.9518 199.468 88.8841 199.415 88.8276C199.362 88.7711 199.297 88.7273 199.225 88.6995C199.153 88.6718 199.075 88.6607 198.998 88.6671H180.861C180.782 88.657 180.701 88.6652 180.625 88.6911C180.55 88.717 180.481 88.76 180.424 88.8167C180.368 88.8734 180.325 88.9424 180.299 89.0182C180.274 89.094 180.266 89.1748 180.276 89.2541V91.0821C180.276 91.4821 180.46 91.6691 180.861 91.6691H199C199.366 91.6691 199.549 91.4861 199.549 91.0821M195.855 78.6821H183.786L184.774 80.9501H194.867L195.855 78.6821Z" fill="white"/>
<path d="M227.37 69.9792C227.665 70.3314 227.843 70.7658 227.882 71.2232C227.886 71.4939 227.836 71.7627 227.736 72.0141C227.635 72.2655 227.486 72.4946 227.297 72.6882C225.011 73.7452 222.652 74.6372 220.239 75.3572C219.842 75.5052 219.418 75.5673 218.995 75.5392C218.776 75.5338 218.561 75.4698 218.375 75.3537C218.188 75.2377 218.036 75.0738 217.934 74.8792C217.672 74.4789 217.543 74.0053 217.568 73.5272C217.585 73.2545 217.676 72.9915 217.831 72.7661C217.985 72.5408 218.198 72.3615 218.446 72.2472C220.86 71.4052 223.273 70.6032 225.686 69.7972C225.974 69.7334 226.267 69.6965 226.562 69.6872C226.856 69.6891 227.141 69.7918 227.368 69.9782M225.868 64.0912C226.335 64.0684 226.797 64.196 227.186 64.4552C227.491 64.8379 227.634 65.3244 227.586 65.8112C227.628 66.2286 227.511 66.6463 227.258 66.9812C227.083 67.1723 226.867 67.321 226.626 67.4158C226.385 67.5106 226.125 67.549 225.867 67.5282H219.579C219.344 67.5519 219.106 67.5287 218.88 67.4601C218.654 67.3914 218.444 67.2786 218.261 67.1282C217.97 66.9092 217.861 66.4682 217.861 65.8122C217.82 65.3261 217.963 64.8422 218.261 64.4562C218.65 64.197 219.112 64.0694 219.579 64.0922L225.868 64.0912ZM234.829 62.3012C235.022 62.4123 235.181 62.5729 235.29 62.7664C235.399 62.9598 235.454 63.1791 235.45 63.4012C235.42 63.7979 235.307 64.1841 235.12 64.5352H247.737C248.455 64.5025 249.166 64.6797 249.784 65.0452C250.062 65.2733 250.28 65.5652 250.421 65.8961C250.561 66.227 250.619 66.587 250.59 66.9452C250.583 67.1323 250.545 67.317 250.479 67.4922C250.126 68.547 249.581 69.5272 248.871 70.3832C248.725 70.6512 248.526 70.8868 248.286 71.0762C247.901 71.3086 247.452 71.4106 247.004 71.3672C246.419 71.3943 245.844 71.1989 245.397 70.8202C245.254 70.6937 245.143 70.5348 245.073 70.3567C245.003 70.1786 244.977 69.9864 244.997 69.7962C245.016 69.6582 245.08 69.5302 245.179 69.4322C245.623 68.8986 245.994 68.3072 246.279 67.6742C246.279 67.6012 246.133 67.5282 245.879 67.5282H240.579V68.3342C240.542 68.8781 240.639 69.4229 240.863 69.9202C241.086 70.4175 241.429 70.852 241.86 71.1852C242.883 72.0645 245.552 72.9419 249.868 73.8172C250.128 73.9164 250.351 74.0925 250.508 74.3219C250.665 74.5514 250.748 74.8232 250.746 75.1012C250.742 75.3681 250.686 75.6315 250.579 75.8762C250.472 76.1208 250.318 76.3418 250.125 76.5262C249.708 76.9128 249.157 77.1219 248.588 77.1092C247.917 77.1012 247.252 76.9906 246.614 76.7812C246.501 76.7562 246.39 76.7193 246.284 76.6712C246.602 77.1313 246.756 77.6842 246.723 78.2422V88.3732C246.768 88.6828 246.741 88.9987 246.644 89.296C246.546 89.5933 246.381 89.8641 246.162 90.0869C245.942 90.3097 245.674 90.4786 245.378 90.5804C245.082 90.6821 244.766 90.7139 244.456 90.6732H240.323C242.48 91.4375 244.71 91.9764 246.978 92.2812C247.856 92.3912 248.551 92.4642 249.027 92.5362C249.684 92.7222 250.013 93.0515 250.014 93.5242C250.03 93.818 249.975 94.1114 249.853 94.3792C249.731 94.647 249.546 94.8813 249.314 95.0622C248.848 95.3707 248.302 95.5355 247.743 95.5362C246.663 95.4704 245.588 95.3368 244.524 95.1362C242.528 94.7136 240.571 94.1255 238.673 93.3782C238.081 93.1241 237.507 92.8308 236.954 92.5002C236.892 92.4526 236.84 92.3924 236.802 92.3235C236.764 92.2546 236.742 92.1785 236.735 92.1002C236.752 91.8533 236.819 91.6125 236.932 91.3924C237.045 91.1723 237.202 90.9776 237.393 90.8202C237.444 90.7604 237.506 90.7105 237.575 90.6732H230.949C231.09 90.7977 231.205 90.9493 231.287 91.119C231.369 91.2887 231.416 91.4731 231.425 91.6612C231.423 91.8471 231.382 92.0306 231.307 92.2005C231.231 92.3704 231.122 92.523 230.985 92.6492C230.185 92.9772 229.303 93.2692 228.385 93.5602C225.972 94.2932 223.741 94.8762 221.764 95.2812C221.138 95.4148 220.503 95.5001 219.864 95.5362C219.596 95.55 219.328 95.5085 219.076 95.4145C218.825 95.3204 218.595 95.1756 218.402 94.9892C218.131 94.6602 217.989 94.2441 218.002 93.8182C217.997 93.5446 218.075 93.2758 218.225 93.0469C218.375 92.8181 218.59 92.6397 218.843 92.5352C222.465 91.8782 225.316 91.2912 227.365 90.7442C227.455 90.7422 227.543 90.7171 227.62 90.6712H223.42C223.109 90.7151 222.792 90.6855 222.495 90.5849C222.198 90.4843 221.928 90.3155 221.707 90.0919C221.487 89.8683 221.322 89.5963 221.225 89.2975C221.129 88.9987 221.104 88.6815 221.152 88.3712V78.2442C221.104 77.934 221.129 77.6167 221.225 77.3179C221.322 77.0191 221.487 76.7471 221.707 76.5235C221.928 76.3 222.198 76.1311 222.495 76.0305C222.792 75.9299 223.109 75.9004 223.42 75.9442H227.773C227.642 75.6848 227.579 75.3966 227.589 75.1062C227.578 74.8494 227.636 74.5943 227.758 74.3681C227.881 74.142 228.062 73.9533 228.283 73.8222C230.261 73.3162 232.203 72.6815 234.098 71.9222C234.787 71.6619 235.387 71.2104 235.827 70.6209C236.268 70.0313 236.531 69.3282 236.586 68.5942V67.5302H233.476C232.964 68.3362 232.49 69.1012 232.015 69.7982C231.884 69.9891 231.716 70.1522 231.521 70.278C231.327 70.4038 231.109 70.4899 230.881 70.5312C230.397 70.5627 229.918 70.4209 229.529 70.1312C229.327 70.0101 229.16 69.8385 229.044 69.6332C228.928 69.4278 228.868 69.1959 228.869 68.9602C228.894 68.597 229.007 68.2454 229.199 67.9362C230.663 65.8182 231.799 64.0602 232.564 62.6722C232.668 62.469 232.803 62.2831 232.964 62.1212C233.157 62.0262 233.37 61.9763 233.585 61.9752C234.023 61.971 234.453 62.0857 234.83 62.3072M243.022 80.1122V79.3792C243.03 79.2827 243.016 79.1856 242.982 79.0951C242.947 79.0047 242.893 78.9231 242.822 78.8566C242.752 78.7901 242.667 78.7402 242.575 78.7107C242.483 78.6812 242.385 78.6728 242.289 78.6862H225.578C225.484 78.6737 225.389 78.6831 225.299 78.7135C225.209 78.7439 225.127 78.7945 225.06 78.8615C224.993 78.9285 224.942 79.0101 224.912 79.0998C224.881 79.1896 224.872 79.2852 224.884 79.3792V80.1122H243.022ZM243.022 82.5252H224.883V83.9502H243.022V82.5252ZM243.022 87.2422V86.4002H224.884V87.2422C224.884 87.7532 225.103 87.9752 225.578 87.9752H242.289C242.389 87.9903 242.491 87.9817 242.587 87.9502C242.682 87.9187 242.769 87.8651 242.841 87.7938C242.912 87.7225 242.966 87.6354 242.997 87.5396C243.029 87.4438 243.037 87.3419 243.022 87.2422ZM244.411 75.9422C242.578 75.1591 240.817 74.2165 239.149 73.1252C238.981 73.0263 238.794 72.9642 238.6 72.9432C238.452 72.9645 238.313 73.0277 238.2 73.1252C236.776 74.254 235.216 75.1997 233.556 75.9402L244.411 75.9422Z" fill="white"/>
<path d="M273.44 68.6644C273.919 68.6369 274.393 68.7649 274.793 69.0294C275.026 69.428 275.152 69.8803 275.159 70.3421C275.165 70.8039 275.052 71.2595 274.829 71.6644C274.663 71.868 274.45 72.0277 274.207 72.1295C273.965 72.2313 273.702 72.2721 273.44 72.2484H262.87C262.638 72.267 262.405 72.2377 262.184 72.1624C261.964 72.087 261.761 71.9672 261.589 71.8104C261.421 71.6162 261.296 71.3892 261.221 71.1438C261.145 70.8985 261.122 70.6402 261.152 70.3854C261.122 69.8945 261.278 69.4104 261.589 69.0294C261.964 68.7695 262.415 68.6412 262.87 68.6644H273.44ZM272.013 84.0964C272.325 84.0524 272.644 84.0816 272.943 84.1816C273.242 84.2816 273.514 84.4498 273.737 84.6728C273.96 84.8958 274.128 85.1676 274.228 85.4667C274.328 85.7658 274.357 86.0841 274.313 86.3964V92.3964C274.354 92.7067 274.323 93.0224 274.221 93.3185C274.12 93.6146 273.951 93.8831 273.728 94.1029C273.505 94.3227 273.234 94.4878 272.936 94.5853C272.639 94.6827 272.323 94.7098 272.013 94.6644H264.443C264.135 94.7094 263.82 94.6818 263.525 94.5837C263.229 94.4856 262.96 94.3199 262.74 94.0996C262.52 93.8793 262.354 93.6106 262.256 93.3149C262.158 93.0192 262.13 92.7046 262.175 92.3964V86.3964C262.127 86.0862 262.152 85.769 262.249 85.4703C262.345 85.1716 262.511 84.8996 262.731 84.6761C262.951 84.4526 263.221 84.2838 263.518 84.1831C263.816 84.0824 264.132 84.0527 264.443 84.0964H272.013ZM272.453 73.9694C272.893 73.9289 273.333 74.0451 273.696 74.2974C273.96 74.6549 274.078 75.0998 274.026 75.5414C274.05 75.9179 273.947 76.2917 273.733 76.6024C273.577 76.7841 273.378 76.9253 273.156 77.0141C272.933 77.1029 272.692 77.1366 272.453 77.1124H264.043C263.825 77.1372 263.604 77.1143 263.396 77.0452C263.187 76.9761 262.996 76.8626 262.836 76.7124C262.579 76.5304 262.469 76.1254 262.469 75.5424C262.439 75.0971 262.569 74.6557 262.836 74.2984C263.188 74.051 263.615 73.9349 264.043 73.9704L272.453 73.9694ZM272.307 78.9414C272.752 78.9107 273.193 79.0402 273.55 79.3064C273.758 79.6527 273.87 80.0477 273.877 80.4514C273.883 80.8551 273.783 81.2535 273.587 81.6064C273.423 81.7762 273.223 81.9072 273.001 81.9897C272.78 82.0723 272.543 82.1042 272.307 82.0834H264.042C263.827 82.1043 263.609 82.0826 263.402 82.0195C263.195 81.9563 263.002 81.853 262.835 81.7154C262.692 81.552 262.585 81.3599 262.522 81.1519C262.458 80.944 262.44 80.7249 262.468 80.5094C262.437 80.0755 262.568 79.6455 262.835 79.3024C263.181 79.0411 263.609 78.9117 264.042 78.9374L272.307 78.9414ZM272.013 63.5464C272.43 63.5158 272.844 63.6318 273.184 63.8744C273.341 64.0595 273.458 64.2754 273.527 64.5082C273.596 64.741 273.615 64.9856 273.584 65.2264C273.613 65.6448 273.524 66.0628 273.327 66.4334C273.163 66.616 272.959 66.7577 272.73 66.847C272.502 66.9363 272.255 66.9706 272.011 66.9474H264.295C264.094 66.9664 263.89 66.9404 263.7 66.8713C263.51 66.8021 263.337 66.6914 263.195 66.5474C263.013 66.3845 262.874 66.179 262.791 65.9493C262.708 65.7197 262.684 65.473 262.719 65.2314C262.692 64.9791 262.721 64.724 262.803 64.484C262.885 64.244 263.019 64.0249 263.195 63.8424C263.513 63.6119 263.905 63.5082 264.295 63.5514L272.013 63.5464ZM270.879 90.8254V87.9784C270.887 87.8996 270.877 87.8201 270.85 87.7456C270.823 87.6711 270.781 87.6034 270.725 87.5473C270.669 87.4913 270.601 87.4482 270.527 87.4213C270.452 87.3943 270.373 87.3841 270.294 87.3914H266.161C266.084 87.3851 266.007 87.3963 265.935 87.4242C265.863 87.452 265.798 87.4958 265.745 87.5523C265.692 87.6087 265.653 87.6763 265.63 87.7501C265.607 87.8239 265.601 87.9019 265.612 87.9784V90.8294C265.602 90.9038 265.609 90.9796 265.633 91.0509C265.657 91.1221 265.697 91.1868 265.75 91.2398C265.803 91.2929 265.868 91.3328 265.94 91.3565C266.011 91.3802 266.087 91.387 266.161 91.3764H270.294C270.37 91.3878 270.448 91.3818 270.522 91.3589C270.595 91.3361 270.663 91.2969 270.719 91.2443C270.775 91.1916 270.819 91.127 270.847 91.0552C270.874 90.9833 270.885 90.9061 270.879 90.8294M278.595 77.2604V66.9474H276.73C276.509 66.973 276.284 66.9465 276.074 66.87C275.865 66.7934 275.676 66.6689 275.523 66.5064C275.242 66.1425 275.111 65.684 275.159 65.2264C275.131 64.9829 275.156 64.7363 275.232 64.5031C275.307 64.27 275.431 64.0556 275.596 63.8744C275.917 63.6209 276.324 63.5031 276.73 63.5464H288.03C289.712 63.5464 290.587 64.2754 290.587 65.6674V87.6784C290.664 89.9464 290.846 91.0784 291.174 91.0784C291.466 91.0784 291.685 90.2784 291.834 88.6284C291.907 87.8954 291.944 87.1674 292.017 86.5074C292.163 86.0694 292.637 85.8144 293.442 85.8144C294.393 85.8144 294.942 86.2144 295.013 86.9484C294.971 89.1118 294.473 91.2421 293.552 93.2004C292.782 94.6624 291.834 95.3954 290.737 95.3954C290.15 95.2437 289.604 94.9654 289.136 94.5799C288.669 94.1945 288.291 93.7113 288.03 93.1644C287.261 91.4386 286.874 89.5668 286.896 87.6774V67.0934C286.896 67.0204 286.785 66.9474 286.602 66.9474H282.324V77.2574H284.737C285.181 77.2396 285.618 77.369 285.98 77.6254C286.161 77.8194 286.298 78.0507 286.38 78.3031C286.462 78.5555 286.488 78.8229 286.456 79.0864C286.492 79.5287 286.403 79.9723 286.199 80.3664C286.018 80.5712 285.792 80.731 285.538 80.8329C285.285 80.9348 285.011 80.9761 284.738 80.9534H282.325V93.5304C282.348 93.7767 282.317 94.025 282.235 94.2584C282.153 94.4917 282.021 94.7046 281.849 94.8824C281.668 95.0625 281.45 95.2015 281.21 95.2902C280.971 95.3789 280.715 95.4151 280.46 95.3964C280.205 95.4187 279.948 95.3842 279.707 95.2954C279.467 95.2065 279.249 95.0654 279.069 94.8824C278.896 94.7055 278.763 94.4928 278.681 94.2592C278.599 94.0256 278.569 93.7768 278.593 93.5304V80.9534H276.437C276.217 80.9654 275.996 80.9327 275.789 80.857C275.581 80.7814 275.391 80.6645 275.23 80.5134C274.9 80.2944 274.754 79.8204 274.754 79.0874C274.721 78.8178 274.746 78.5442 274.828 78.2853C274.91 78.0264 275.047 77.7883 275.23 77.5874C275.576 77.3276 276.007 77.2092 276.437 77.2564L278.595 77.2604Z" fill="white"/>
<path d="M315.742 66.2499C316.145 65.1727 316.488 64.0737 316.767 62.9579C316.83 62.7322 316.956 62.5292 317.131 62.3734C317.306 62.2175 317.523 62.1153 317.754 62.079C318.322 62.0612 318.886 62.1748 319.402 62.411C319.612 62.5413 319.784 62.7251 319.899 62.9435C320.014 63.1619 320.07 63.4071 320.059 63.6539C320.039 64.0641 319.965 64.4699 319.84 64.8609C319.694 65.3349 319.585 65.8119 319.44 66.2499H336.334C336.812 66.2274 337.284 66.3546 337.686 66.6139C337.968 67.0055 338.099 67.4857 338.054 67.966C338.093 68.4077 337.976 68.8491 337.722 69.2129C337.556 69.4165 337.343 69.5762 337.101 69.6779C336.859 69.7796 336.596 69.8201 336.334 69.7959H318.159C317.674 70.984 317.098 72.1334 316.438 73.2339H332.052C333.955 73.2339 334.907 74.3313 334.907 76.5259V92.103C334.965 92.5435 334.899 92.9914 334.718 93.3972C334.537 93.803 334.248 94.151 333.882 94.4029C332.773 94.9176 331.557 95.1577 330.335 95.103C328.526 95.1993 326.717 94.8997 325.035 94.2249C324.772 94.08 324.546 93.8759 324.375 93.6285C324.204 93.3812 324.093 93.0975 324.051 92.8C324.051 91.556 324.562 90.8999 325.622 90.8239C325.954 90.8323 326.285 90.8691 326.61 90.9339C327.869 91.3091 329.173 91.5067 330.486 91.521C330.85 91.484 331.036 91.2619 331.036 90.8209V87.5289H315.746V93.6719C315.775 93.9256 315.74 94.1826 315.645 94.4194C315.549 94.6562 315.396 94.8654 315.199 95.0279C314.774 95.296 314.276 95.4234 313.774 95.3919C313.516 95.4179 313.256 95.3888 313.01 95.3066C312.765 95.2243 312.539 95.0908 312.349 94.9149C312.047 94.5729 311.889 94.127 311.908 93.6709V79.1949C310.88 80.2115 309.78 81.1523 308.616 82.01C308.291 82.2801 307.899 82.4576 307.482 82.524C307.152 82.5422 306.822 82.4781 306.522 82.3374C306.222 82.1968 305.962 81.9839 305.765 81.718C305.474 81.2864 305.322 80.7764 305.328 80.256C305.301 79.9737 305.356 79.6895 305.485 79.4371C305.614 79.1846 305.813 78.9743 306.057 78.8309C308.553 77.1375 310.722 75.0057 312.457 72.5389C313.086 71.6613 313.659 70.7455 314.174 69.7969H307.335C307.1 69.8207 306.863 69.7975 306.637 69.7289C306.411 69.6602 306.201 69.5474 306.019 69.397C305.858 69.1988 305.74 68.9697 305.671 68.7239C305.602 68.4781 305.585 68.2208 305.619 67.968C305.579 67.4831 305.721 67.0006 306.019 66.6159C306.407 66.3566 306.869 66.229 307.335 66.2519L315.742 66.2499ZM331.031 79.0819V77.1099C331.031 76.7459 330.881 76.5269 330.631 76.5269H316.474C315.964 76.5269 315.741 76.7459 315.741 77.1099V79.0819H331.031ZM331.031 82.0819H315.741V84.5319H331.031V82.0819Z" fill="white"/>
<path d="M362.073 66.2503C362.073 68.6283 361.195 71.7743 359.51 75.6863C361.138 77.7767 362.083 80.3167 362.219 82.9623C362.346 84.7385 362.006 86.5168 361.231 88.1203C360.909 88.6901 360.449 89.1695 359.893 89.5144C359.337 89.8592 358.703 90.0583 358.049 90.0933C357.005 90.1182 355.961 90.0202 354.939 89.8013C354.585 89.663 354.281 89.4216 354.065 89.1083V93.8253C353.992 94.6993 353.441 95.1773 352.344 95.2513C351.173 95.1773 350.554 94.6993 350.481 93.8253V65.9593C350.481 64.6433 350.991 63.9473 352.052 63.9473H360.207C361.45 63.9473 362.072 64.714 362.074 66.2473M354.943 85.8163C355.14 85.827 355.336 85.8514 355.53 85.8893C355.936 86.0072 356.353 86.0806 356.774 86.1083C357.543 86.0723 358.017 85.5573 358.235 84.6083C358.436 83.6462 358.523 82.6638 358.494 81.6813C358.494 80.3293 357.761 78.7933 356.299 77.1103C355.973 76.7493 355.79 76.2811 355.785 75.7943C355.813 75.3806 355.939 74.9794 356.153 74.6243C357.246 72.5418 357.986 70.2922 358.343 67.9673C358.347 67.9281 358.342 67.8885 358.329 67.8513C358.315 67.8142 358.294 67.7805 358.266 67.7526C358.238 67.7248 358.204 67.7034 358.167 67.69C358.13 67.6766 358.09 67.6716 358.051 67.6753H354.066V86.3273C354.155 86.1736 354.282 86.0456 354.435 85.956C354.589 85.8664 354.763 85.8183 354.94 85.8163M377.213 63.9473C377.563 63.9028 377.919 63.9398 378.253 64.0553C378.587 64.1709 378.889 64.3619 379.137 64.6136C379.384 64.8652 379.571 65.1706 379.681 65.5061C379.791 65.8415 379.822 66.1978 379.772 66.5473V78.5373C379.772 80.1483 378.857 80.9543 377.063 80.9543H373.298C373.679 82.0715 374.143 83.1586 374.686 84.2063C376.249 83.2718 377.677 82.1278 378.929 80.8063C379.237 80.5205 379.643 80.3638 380.063 80.3683C380.514 80.3853 380.944 80.5671 381.27 80.8793C381.439 81.0316 381.572 81.2189 381.66 81.4281C381.748 81.6374 381.79 81.8634 381.781 82.0903C381.728 82.6562 381.527 83.1981 381.197 83.6613C379.842 85.1216 378.262 86.3559 376.517 87.3173C377.799 89.16 379.324 90.8204 381.052 92.2533C381.273 92.3866 381.456 92.5742 381.584 92.7982C381.712 93.0223 381.78 93.2754 381.782 93.5333C381.792 93.7619 381.755 93.9901 381.674 94.2038C381.592 94.4176 381.468 94.6124 381.308 94.7763C381.12 94.9437 380.9 95.0721 380.661 95.1543C380.423 95.2365 380.171 95.2709 379.919 95.2553C379.013 95.1251 378.169 94.7158 377.506 94.0843C375.174 92.0704 373.27 89.6088 371.906 86.8453C370.924 84.9776 370.163 83.0016 369.638 80.9573H366.933V89.7323C368.033 89.4043 369.091 89.0763 370.149 88.7803C370.499 88.7135 370.853 88.6771 371.209 88.6713C371.57 88.6811 371.917 88.809 372.197 89.0353C372.561 89.4518 372.769 89.9823 372.784 90.5353C372.788 90.8003 372.739 91.0633 372.638 91.3084C372.537 91.5534 372.387 91.7752 372.197 91.9603C369.379 93.0686 366.498 94.0083 363.568 94.7743C363.08 94.9094 362.575 94.972 362.068 94.9603C361.829 94.9577 361.594 94.8915 361.389 94.7685C361.183 94.6455 361.014 94.4701 360.898 94.2603C360.606 93.8309 360.463 93.317 360.493 92.7983C360.494 92.507 360.573 92.2211 360.72 91.9701C360.868 91.7191 361.081 91.5121 361.335 91.3703L363.201 90.8233V66.5423C363.148 66.1922 363.177 65.8344 363.286 65.4975C363.395 65.1605 363.581 64.8536 363.829 64.6012C364.078 64.3487 364.382 64.1577 364.717 64.0434C365.052 63.929 365.409 63.8944 365.76 63.9423L377.213 63.9473ZM376.079 70.6773V67.8223C376.087 67.7627 376.081 67.702 376.062 67.6451C376.043 67.5881 376.01 67.5364 375.967 67.494C375.925 67.4517 375.873 67.4198 375.816 67.401C375.759 67.3821 375.698 67.3767 375.638 67.3853H367.338C367.047 67.3853 366.938 67.5303 366.938 67.8223V70.6773H376.079ZM367.337 77.5153H375.637C375.929 77.5153 376.078 77.4063 376.078 77.1153V74.1153H366.935V77.1153C366.935 77.4103 367.045 77.5153 367.335 77.5153" fill="white"/>
<path d="M402.18 67.348C402.439 67.5246 402.646 67.7663 402.781 68.0486C402.916 68.331 402.974 68.644 402.949 68.956C402.912 69.175 402.839 69.47 402.766 69.762C402.342 70.958 401.776 72.0994 401.082 73.162C399.824 75.3716 398.289 77.4114 396.514 79.232C396.093 79.5177 395.595 79.67 395.086 79.669C394.813 79.6628 394.544 79.5977 394.298 79.4781C394.052 79.3585 393.835 79.1872 393.661 78.976C393.468 78.7861 393.316 78.5582 393.216 78.3067C393.115 78.0552 393.068 77.7856 393.077 77.515C393.085 77.3147 393.142 77.1195 393.244 76.947C393.346 76.7745 393.489 76.6302 393.661 76.527C395.008 75.0356 396.242 73.4466 397.353 71.773C398.303 70.5175 399.077 69.1381 399.653 67.673C399.803 67.434 400.014 67.24 400.265 67.1116C400.516 66.9832 400.797 66.9253 401.078 66.944C401.475 66.9721 401.856 67.1106 402.178 67.344M409.163 72.976C409.403 73.1182 409.601 73.3219 409.736 73.5661C409.871 73.8102 409.939 74.086 409.932 74.365C409.824 75.1513 409.627 75.9229 409.345 76.665C407.679 81.0163 405.546 85.1739 402.983 89.065C407.655 88.8854 412.304 88.3219 416.883 87.38C415.676 85.736 414.361 84.052 412.934 82.371C412.602 82.0252 412.406 81.5702 412.384 81.091C412.4 80.8505 412.475 80.6177 412.603 80.4135C412.731 80.2093 412.908 80.04 413.117 79.9209C413.524 79.6393 414.012 79.4972 414.506 79.516C415.071 79.5762 415.611 79.7781 416.077 80.103C418.951 82.9295 421.402 86.1565 423.353 89.684C423.831 90.5129 424.13 91.4326 424.231 92.384C424.262 92.665 424.229 92.9492 424.134 93.2156C424.039 93.4819 423.885 93.7234 423.684 93.922C423.259 94.2278 422.743 94.3817 422.219 94.359C421.928 94.3575 421.643 94.2787 421.393 94.1308C421.142 93.9828 420.936 93.771 420.794 93.517C420.284 92.565 419.733 91.69 419.15 90.738C416.577 91.4017 413.962 91.8901 411.323 92.2C406.466 92.8858 401.566 93.228 396.66 93.224C396.087 93.2852 395.513 93.1292 395.049 92.787C394.851 92.5788 394.699 92.3305 394.605 92.0588C394.511 91.7871 394.476 91.4983 394.502 91.212C394.49 90.7401 394.603 90.2735 394.83 89.86C395.072 89.6297 395.361 89.4549 395.677 89.3478C395.993 89.2407 396.329 89.2039 396.66 89.24C397.244 89.24 397.831 89.24 398.378 89.204C401.647 84.4499 404.244 79.2677 406.096 73.804C406.22 73.4834 406.435 73.2059 406.714 73.0052C406.993 72.8046 407.324 72.6895 407.667 72.674C408.182 72.6678 408.692 72.7668 409.167 72.965M415.532 63.531C416.341 63.4999 417.14 63.7136 417.825 64.1442C418.51 64.5747 419.049 65.202 419.371 65.944C421.002 69.4653 423.066 72.7695 425.514 75.78C425.755 75.9956 425.946 76.2615 426.072 76.5589C426.199 76.8563 426.259 77.1779 426.247 77.501C426.258 77.7472 426.214 77.9928 426.119 78.2202C426.024 78.4476 425.88 78.6513 425.697 78.817C425.455 79.0707 425.158 79.2652 424.828 79.3854C424.499 79.5056 424.146 79.5482 423.797 79.51C422.921 79.1858 422.175 78.5825 421.675 77.793C419.297 74.7737 417.306 71.4679 415.751 67.953C415.612 67.6703 415.392 67.4358 415.118 67.28C414.844 67.1241 414.53 67.0541 414.216 67.079H404.523C404.282 67.0874 404.043 67.0437 403.82 66.9507C403.598 66.8578 403.398 66.7178 403.235 66.5404C403.072 66.3631 402.949 66.1525 402.875 65.9232C402.801 65.6939 402.778 65.4512 402.806 65.212C402.788 64.9834 402.82 64.7537 402.9 64.5389C402.981 64.3242 403.107 64.1298 403.271 63.9694C403.435 63.809 403.632 63.6866 403.848 63.6108C404.065 63.5351 404.295 63.5078 404.523 63.531H415.532Z" fill="white"/>
<path d="M465.403 63.6553C467.562 63.6553 468.659 64.8253 468.659 67.0933V90.8253C468.659 92.6193 468.328 93.7893 467.671 94.2993C467.157 94.8093 465.95 95.1053 464.088 95.1053C459.735 94.8053 456.848 94.3363 455.382 93.6773C454.875 93.5253 454.436 93.2032 454.139 92.7653C453.9 92.2893 453.787 91.7596 453.811 91.2273C453.819 91.0026 453.879 90.7829 453.987 90.5859C454.096 90.3889 454.249 90.2201 454.434 90.0933C454.778 89.7938 455.223 89.6374 455.678 89.6563C456.263 89.7288 456.839 89.8629 457.395 90.0563C459.378 90.7109 461.45 91.0563 463.538 91.0803C464.198 91.0803 464.526 90.7893 464.526 90.2383V68.6643C464.526 67.8223 464.126 67.3843 463.392 67.3843H439.108C438.641 67.3452 438.205 67.1318 437.887 66.7865C437.569 66.4411 437.393 65.989 437.393 65.5198C437.393 65.0505 437.569 64.5984 437.887 64.2531C438.205 63.9077 438.641 63.6944 439.108 63.6553H465.403ZM458.528 70.6763C459.047 70.6424 459.561 70.7832 459.99 71.0763C460.304 71.4948 460.447 72.0171 460.39 72.5373C460.43 72.9781 460.312 73.4188 460.058 73.7813C459.861 73.985 459.621 74.1431 459.356 74.2445C459.09 74.3459 458.806 74.3881 458.523 74.3683H440.096C439.599 74.4207 439.101 74.2773 438.707 73.9683C438.526 73.7812 438.389 73.5555 438.307 73.3081C438.224 73.0606 438.199 72.7978 438.233 72.5393C438.199 72.0096 438.368 71.4868 438.707 71.0783C439.108 70.7848 439.601 70.643 440.096 70.6783L458.528 70.6763ZM455.236 77.2563C455.606 77.2019 455.984 77.2341 456.339 77.3505C456.694 77.4668 457.018 77.6641 457.284 77.9267C457.55 78.1893 457.751 78.5101 457.872 78.8639C457.993 79.2177 458.031 79.5947 457.981 79.9653V86.4003C457.981 88.2303 457.066 89.1083 455.236 89.1083H442.691C440.864 89.1083 439.95 88.2303 439.95 86.4003V79.9653C439.901 79.595 439.938 79.2183 440.058 78.8648C440.179 78.5113 440.38 78.1906 440.646 77.9281C440.912 77.6655 441.235 77.4681 441.59 77.3516C441.944 77.235 442.322 77.2024 442.691 77.2563H455.236ZM453.956 85.0833V81.2473C453.956 80.8793 453.773 80.6603 453.409 80.6603H444.521C444.156 80.6603 443.974 80.8793 443.974 81.2473V85.0863C443.974 85.4863 444.156 85.6733 444.521 85.6733H453.409C453.773 85.6733 453.956 85.4873 453.956 85.0863" fill="white"/>
</svg>
