<?xml version="1.0" standalone="no"?>
<!DOCTYPE svg PUBLIC "-//W3C//DTD SVG 20010904//EN"
 "http://www.w3.org/TR/2001/REC-SVG-20010904/DTD/svg10.dtd">
<svg version="1.0" xmlns="http://www.w3.org/2000/svg"
 width="329.000000pt" height="329.000000pt" viewBox="0 0 329.000000 329.000000"
 preserveAspectRatio="xMidYMid meet">
<metadata>
Created by potrace 1.14, written by Peter Selinger 2001-2017
</metadata>
<g transform="translate(0.000000,329.000000) scale(0.100000,-0.100000)"
fill="#000000" stroke="none">
<path d="M1535 3168 c-33 -12 -75 -31 -94 -44 -33 -22 -340 -321 -342 -333 -1
-3 -36 -37 -79 -76 -43 -38 -78 -73 -79 -77 -1 -3 -32 -37 -71 -74 -38 -37
-70 -71 -70 -77 0 -5 191 -200 425 -434 l426 -426 26 24 c14 13 132 131 263
262 l238 238 52 -53 c64 -66 171 -208 234 -310 39 -64 79 -147 136 -283 4 -11
15 -47 24 -80 52 -201 46 -383 -17 -515 -17 -36 -33 -69 -36 -75 -8 -18 25 20
62 70 20 28 43 61 49 75 7 14 15 27 19 30 3 3 25 43 47 90 52 108 84 205 99
295 3 17 8 50 13 75 9 46 6 292 -4 345 -3 17 -8 46 -11 65 -20 107 -133 378
-175 420 -3 3 -25 32 -49 65 -50 67 -723 745 -740 745 -6 0 -11 3 -11 8 0 4
-15 15 -32 24 -95 48 -210 58 -303 26z"/>
<path d="M695 2387 c-22 -28 -54 -74 -72 -102 -18 -27 -37 -55 -43 -62 -5 -7
-10 -14 -10 -17 0 -3 -14 -36 -31 -73 -48 -104 -48 -104 -64 -168 -24 -88 -25
-96 -32 -145 -9 -69 -9 -69 -14 -74 -5 -5 -2 -197 5 -251 24 -202 88 -379 193
-539 51 -77 75 -107 151 -185 28 -29 52 -58 52 -64 0 -6 2 -8 5 -5 6 6 355
-340 355 -353 0 -5 4 -9 9 -9 5 0 53 -44 108 -97 99 -97 141 -132 156 -132 4
0 18 -6 30 -14 22 -14 85 -29 142 -32 60 -4 205 37 205 58 0 4 6 7 13 7 13 0
647 625 647 637 0 3 -193 198 -429 433 l-428 428 -259 -259 c-142 -142 -264
-259 -269 -259 -6 0 -31 23 -55 52 -25 28 -60 67 -77 87 -18 20 -33 39 -33 42
0 4 -13 22 -30 40 -16 19 -36 46 -42 62 -7 15 -16 27 -20 27 -5 0 -8 7 -8 15
0 8 -4 15 -10 15 -5 0 -10 5 -10 11 0 7 -13 33 -28 58 -66 107 -142 323 -157
446 -10 76 -10 178 0 230 4 22 8 47 10 55 2 15 6 25 28 84 5 15 21 44 34 63
36 53 23 47 -22 -10z"/>
</g>
</svg>
